<?xml version="1.0" encoding="UTF-8" standalone="no"?>
<!-- Created with Inkscape (http://www.inkscape.org/) -->

<svg
   xmlns:dc="http://purl.org/dc/elements/1.1/"
   xmlns:cc="http://creativecommons.org/ns#"
   xmlns:rdf="http://www.w3.org/1999/02/22-rdf-syntax-ns#"
   xmlns:svg="http://www.w3.org/2000/svg"
   xmlns="http://www.w3.org/2000/svg"
   xmlns:sodipodi="http://sodipodi.sourceforge.net/DTD/sodipodi-0.dtd"
   xmlns:inkscape="http://www.inkscape.org/namespaces/inkscape"
   width="166.63803mm"
   height="128.15121mm"
   viewBox="0 0 166.63803 128.15121"
   version="1.1"
   id="svg8"
   inkscape:version="0.92.5 (2060ec1f9f, 2020-04-08)"
   sodipodi:docname="zorbasites.svg"
   inkscape:export-filename="/home/luca/Progetti/zorbasites/website/admin/assets/zorbasites.png"
   inkscape:export-xdpi="300"
   inkscape:export-ydpi="300">
  <defs
     id="defs2" />
  <sodipodi:namedview
     id="base"
     pagecolor="#ffffff"
     bordercolor="#666666"
     borderopacity="1.0"
     inkscape:pageopacity="0.0"
     inkscape:pageshadow="2"
     inkscape:zoom="0.7"
     inkscape:cx="157.81094"
     inkscape:cy="375.34882"
     inkscape:document-units="mm"
     inkscape:current-layer="layer1"
     showgrid="false"
     fit-margin-top="0"
     fit-margin-left="0"
     fit-margin-right="0"
     fit-margin-bottom="0"
     inkscape:window-width="1366"
     inkscape:window-height="703"
     inkscape:window-x="0"
     inkscape:window-y="0"
     inkscape:window-maximized="1" />
  <metadata
     id="metadata5">
    <rdf:RDF>
      <cc:Work
         rdf:about="">
        <dc:format>image/svg+xml</dc:format>
        <dc:type
           rdf:resource="http://purl.org/dc/dcmitype/StillImage" />
        <dc:title></dc:title>
      </cc:Work>
    </rdf:RDF>
  </metadata>
  <g
     inkscape:label="Livello 1"
     inkscape:groupmode="layer"
     id="layer1"
     transform="translate(-19.625772,-2.5969663)">
    <rect
       style="opacity:1;fill:#ffffff;fill-opacity:1;fill-rule:evenodd;stroke:#000200;stroke-width:2;stroke-miterlimit:4;stroke-dasharray:none;stroke-dashoffset:0;stroke-opacity:1"
       id="rect816"
       width="164.63803"
       height="126.15121"
       x="20.625772"
       y="3.5969663"
       ry="10.690781" />
    <path
       style="fill:#000000;stroke-width:0.35277778"
       d="m 98.049304,126.78718 c -8.31973,-0.49406 -16.5675,-2.54446 -22.59628,-5.61746 -4.36819,-2.22656 -6.06315,-3.58867 -6.06315,-4.87251 0,-2.88272 2.7762,-10.28089 4.48606,-11.95468 0.64417,-0.63059 1.33252,-1.14653 1.52967,-1.14653 0.40859,0 8.44816,-4.564687 8.44816,-4.796677 0,-0.08342 -0.51593,0.0707 -1.14652,0.34256 -5.84012,2.517507 -7.21138,3.150677 -7.67131,3.542187 -1.22503,1.04282 -1.33916,0.8334 -0.53583,-0.98309 l 0.84881,-1.919297 -1.84534,-1.745252 -1.84534,-1.745244 2.48179,-0.603501 c 1.36499,-0.331925 4.3868,-0.973966 6.71513,-1.426756 3.24072,-0.630227 3.86111,-0.83124 2.64584,-0.857289 -3.97315,-0.08518 -13.6994,2.126463 -16.22778,3.690006 l -0.88195,0.545394 1.05761,-0.225195 c 1.46047,-0.31097 1.07721,-0.04457 -1.47163,1.022939 -1.19786,0.501678 -4.43562,2.109245 -7.19504,3.572355 -2.75942,1.46311 -5.07135,2.60598 -5.13762,2.53971 -0.0663,-0.0663 1.59418,-1.25637 3.68992,-2.64467 3.8141,-2.526617 9.15035,-5.260297 11.96718,-6.130613 0.82462,-0.25478 1.49931,-0.565874 1.49931,-0.691314 0,-0.125441 -0.71405,-1.198041 -1.58677,-2.38355 -1.12713,-1.531095 -1.81692,-2.155455 -2.38125,-2.155406 -1.65609,1.45e-4 -9.38222,1.446703 -12.2329,2.290361 -2.90001,0.858252 -4.31525,0.951466 -2.28065,0.150209 5.09419,-2.006159 10.82517,-3.536266 12.94838,-3.457063 0.84751,0.03161 0.66179,0.125948 -0.75613,0.384062 -2.88408,0.525011 -1.96318,0.678148 1.73551,0.2886 1.82549,-0.192264 6.65283,-0.36238 10.72742,-0.378044 5.91213,-0.02272 7.23021,-0.111206 6.52639,-0.438118 -0.59001,-0.274048 -3.53781,-0.406742 -8.90538,-0.400872 l -8.02343,0.0088 -1.39137,-2.839963 c -2.31812,-4.731614 -2.67052,-6.365455 -2.66695,-12.364963 0.004,-5.91149 0.30375,-7.438182 2.64248,-13.436829 l 1.38759,-3.559052 -1.19386,-3.888503 c -3.91216,-12.742272 -6.17899,-25.401247 -5.3448,-29.847828 0.99464,-5.30186 7.35016,-1.998763 24.1217,12.536544 2.18756,1.895878 4.10343,3.44705 4.2575,3.44705 0.15407,0 1.063,-0.228943 2.01985,-0.508762 8.09015,-2.36587 19.331536,-2.309209 27.813846,0.140192 l 2.43802,0.704016 3.31888,-3.078139 c 10.10532,-9.372296 16.66739,-14.160504 20.96213,-15.29563 2.22734,-0.5887 3.33245,0.09056 3.65584,2.247059 0.63483,4.233379 -2.03834,18.746253 -5.43647,29.515036 l -1.04664,3.316827 1.25021,3.020183 c 4.1363,9.992247 4.28977,19.004509 0.45709,26.841937 -0.93603,1.914084 -1.60803,3.574009 -1.49332,3.688718 0.27943,0.279425 0.10889,0.265451 -3.96597,-0.324933 -3.75132,-0.543507 -9.25358,-0.671445 -12.82465,-0.298192 -3.94527,0.412362 -2.25171,0.725339 3.03506,0.560892 4.07334,-0.126704 6.35499,5.6e-5 10.50545,0.583635 6.1819,0.86922 6.56758,0.893509 5.81053,0.365908 -1.264,-0.880889 5.40609,1.075962 8.58108,2.517497 2.08731,0.947691 1.47621,0.863423 -5.25494,-0.724645 -3.28458,-0.774926 -6.23751,-1.409926 -6.56206,-1.411111 -0.52285,-0.0019 -3.81964,3.444819 -3.81964,3.993363 0,0.118403 0.43657,0.468581 0.97014,0.778172 1.07482,0.623623 0.58702,0.486583 -2.57964,-0.724722 -3.13319,-1.198496 -7.15481,-1.938024 -10.28188,-1.890716 l -2.7489,0.04158 3.46342,0.473368 c 3.72687,0.509372 10.11853,2.180974 10.11853,2.646285 0,0.156361 -0.85955,1.026364 -1.9101,1.933342 l -1.91008,1.649045 0.49897,1.414247 c 0.27444,0.77783 0.49898,1.47595 0.49898,1.55136 0,0.0754 -0.96561,-0.35032 -2.14579,-0.94608 -3.04665,-1.537937 -8.50577,-3.915224 -8.65291,-3.76808 -0.15948,0.159487 11.11549,6.71925 11.84006,6.88852 0.30037,0.0702 0.86364,0.14066 1.2517,0.15663 0.81583,0.0336 4.21975,2.39855 6.52639,4.53439 1.89321,1.75302 1.69497,1.6562 -3.48214,-1.70057 -2.20623,-1.43048 -4.05421,-2.55388 -4.10663,-2.49645 -0.0524,0.0574 0.61582,1.83633 1.48499,3.9531 0.86915,2.11676 1.66437,4.66349 1.76716,5.65939 0.17867,1.73119 0.13157,1.85929 -1.07211,2.91614 -5.67143,4.97957 -17.08687,8.63557 -28.45794,9.11416 -2.42535,0.10208 -4.88598,0.22695 -5.46806,0.27749 -0.58208,0.0506 -3.00471,-0.0237 -5.383626,-0.16495 z m 2.226446,-27.480357 c 0.83825,-0.40579 2.1026,-1.197542 2.80967,-1.759447 l 1.28557,-1.021641 2.5964,1.805034 c 2.18327,1.517814 2.90827,1.830891 4.55628,1.967561 1.22162,0.1013 2.39241,-0.02 3.10817,-0.321987 1.14183,-0.48177 1.13322,-0.48573 -1.52423,-0.70188 -3.03804,-0.2471 -5.66721,-1.358783 -6.79911,-2.874842 -0.4622,-0.619062 -0.766,-1.685209 -0.86323,-3.029384 -0.21075,-2.913666 0.50294,-4.291136 2.77459,-5.355117 1.849,-0.866027 2.53307,-2.026081 1.84572,-3.129968 -0.74966,-1.203943 -6.20669,-1.852969 -9.01724,-1.072455 -1.687316,0.468587 -2.528206,1.655949 -2.054706,2.901336 0.3332,0.876399 0.58063,1.01649 2.580796,1.461237 1.47821,0.32869 2.13612,1.938225 1.97291,4.826607 -0.10895,1.928244 -0.30061,2.574378 -0.97728,3.294662 -1.43314,1.525503 -3.815216,2.449364 -6.898236,2.675404 l -2.82222,0.20692 1.23472,0.60433 c 1.54095,0.754217 4.04782,0.561327 6.191426,-0.47637 z M 89.709504,74.654367 c 0.7953,-0.361184 1.80364,-1.158952 2.24075,-1.772814 0.71675,-1.006581 0.7496,-1.225116 0.33468,-2.226818 -0.58349,-1.408656 -2.21744,-3.278205 -3.98618,-4.560933 -1.94775,-1.412554 -2.29631,-1.322638 -1.94409,0.501509 0.49686,2.573238 -0.38635,5.55625 -1.64509,5.55625 -1.26465,0 -2.00957,-4.253442 -1.1678,-6.668142 0.21646,-0.620942 0.30642,-1.216131 0.19991,-1.322645 -0.41446,-0.414461 -4.39586,-0.165231 -5.63565,0.352784 -1.23885,0.517628 -1.30782,0.631705 -1.30782,2.163276 0,3.197303 2.01237,6.01297 5.46485,7.646289 2.55296,1.20777 5.252,1.327834 7.44644,0.331244 z M 128.4201,74.267564 c 3.1637,-1.593264 5.17533,-4.54375 5.17533,-7.59073 0,-1.531571 -0.069,-1.645648 -1.30783,-2.163276 -1.23978,-0.518015 -5.22118,-0.767245 -5.63564,-0.352784 -0.10652,0.106514 -0.0165,0.701703 0.1999,1.322645 0.87549,2.51141 0.13064,6.668142 -1.19486,6.668142 -1.10588,0 -1.67063,-1.626419 -1.53022,-4.406869 0.0736,-1.456778 0.0831,-2.648687 0.0212,-2.648687 -0.0619,0 -0.59041,0.247107 -1.17446,0.549123 -1.65436,0.855508 -3.82323,2.970051 -4.59203,4.477022 -0.68086,1.334601 -0.68228,1.399219 -0.0546,2.493507 0.35442,0.617873 1.35514,1.490596 2.22383,1.939386 2.0938,1.081722 5.38966,0.961319 7.86937,-0.287479 z M 84.912104,66.834028 c 0,-0.904046 -1.16764,-0.801486 -1.34474,0.11811 -0.0815,0.423334 0.10846,0.613311 0.61332,0.613311 0.50485,0 0.73142,-0.226564 0.73142,-0.731421 z m 40.855836,0.11811 c -0.1771,-0.919596 -1.34473,-1.022156 -1.34473,-0.11811 0,0.504857 0.22656,0.731421 0.73142,0.731421 0.50486,0 0.69484,-0.189977 0.61331,-0.613311 z M 72.456154,49.181106 c 2.2695,-1.997893 6.22557,-4.762391 8.399,-5.869199 1.84769,-0.940925 2.77048,-1.979676 2.48466,-2.79687 -0.33653,-0.962132 -16.68637,-15.090027 -17.60378,-15.211424 -1.10033,-0.1456 -1.94748,0.927258 -2.04238,2.586519 -0.0781,1.366463 1.44343,8.461639 2.87224,13.393374 0.39349,1.358194 1.03584,3.811533 1.42742,5.451863 0.65031,2.724068 1.41716,4.249525 2.13627,4.249525 0.15266,0 1.19962,-0.811703 2.32657,-1.803788 z m 66.894956,1.170235 c 0.31535,-0.348453 0.89375,-1.975641 1.28534,-3.615972 0.39158,-1.64033 1.03392,-4.093669 1.42742,-5.451863 1.42881,-4.931735 2.95039,-12.026911 2.87224,-13.393374 -0.0949,-1.659261 -0.94206,-2.732119 -2.04238,-2.586519 -0.91742,0.121397 -17.26726,14.249292 -17.60379,15.211424 -0.28582,0.817194 0.63697,1.855945 2.48466,2.79687 2.17342,1.106808 6.1295,3.871306 8.39901,5.869199 1.12695,0.992085 2.1739,1.803788 2.32657,1.803788 0.15267,0 0.53558,-0.285097 0.85093,-0.633553 z M 62.300544,109.89223 c 2.62145,-2.07213 7.46172,-5.16738 9.33897,-5.97206 2.12056,-0.90898 2.09459,-0.62628 -0.0448,0.48737 -0.92164,0.47975 -1.46938,0.87967 -1.21721,0.8887 0.25217,0.009 0.94161,-0.2334 1.53209,-0.53875 0.59048,-0.30535 1.13709,-0.49169 1.21469,-0.41409 0.0776,0.0776 -1.00871,0.67477 -2.41403,1.32702 -1.40532,0.65227 -4.16194,2.18798 -6.12582,3.4127 -1.96388,1.22473 -3.6847,2.22677 -3.82404,2.22677 -0.13934,0 0.55372,-0.63795 1.54012,-1.41766 z M 144.96153,99.769043 c -4.12913,-2.048312 -7.44757,-3.784151 -7.3743,-3.85742 0.0733,-0.07327 0.73037,0.116297 1.46023,0.421249 1.33081,0.556051 2.21377,0.409285 1.24054,-0.206203 -0.98326,-0.62183 -0.05,-0.3365 2.19727,0.671778 3.50684,1.57341 11.56252,6.811213 10.33655,6.720813 -0.19402,-0.0143 -3.73116,-1.7019 -7.86029,-3.750217 z m -1.92928,-10.212232 c 0.24253,-0.09786 0.6394,-0.09786 0.88194,0 0.24253,0.09786 0.0441,0.177938 -0.44097,0.177938 -0.48507,0 -0.68351,-0.08007 -0.44097,-0.177938 z"
       id="path839"
       inkscape:connector-curvature="0" />
    <path
       style="fill:none;fill-rule:evenodd;stroke:#000000;stroke-width:1;stroke-linecap:butt;stroke-linejoin:miter;stroke-miterlimit:4;stroke-dasharray:none;stroke-opacity:1"
       d="m 21.160312,19.258416 h 21.381562 l 5.87993,-8.285355 h 25.123335 l 4.607829,8.314505 H 184.8629"
       id="path818"
       inkscape:connector-curvature="0"
       sodipodi:nodetypes="cccccc" />
    <g
       id="g861"
       transform="translate(1.5875,-2.1166667)">
      <circle
         r="3.2127974"
         cy="12.176666"
         cx="175.02747"
         id="path820"
         style="opacity:1;fill:none;fill-opacity:1;fill-rule:evenodd;stroke:#000200;stroke-width:1;stroke-miterlimit:4;stroke-dasharray:none;stroke-dashoffset:0;stroke-opacity:1" />
      <circle
         r="3.2127974"
         cy="12.138867"
         cx="166.9767"
         id="path820-6"
         style="opacity:1;fill:none;fill-opacity:1;fill-rule:evenodd;stroke:#000200;stroke-width:1;stroke-miterlimit:4;stroke-dasharray:none;stroke-dashoffset:0;stroke-opacity:1" />
      <circle
         r="3.2127974"
         cy="12.063271"
         cx="159.11484"
         id="path820-7"
         style="opacity:1;fill:none;fill-opacity:1;fill-rule:evenodd;stroke:#000200;stroke-width:1;stroke-miterlimit:4;stroke-dasharray:none;stroke-dashoffset:0;stroke-opacity:1" />
    </g>
    <path
       style="opacity:1;fill:#000007;fill-opacity:1;fill-rule:evenodd;stroke:#000200;stroke-width:5.39932537;stroke-miterlimit:4;stroke-dasharray:none;stroke-dashoffset:0;stroke-opacity:1"
       d="m -108.86371,-19.021661 c 0.52383,-6.814873 2.1151,-14.984326 3.55096,-18.23032 3.28198,-7.419457 10.607879,-14.80394 18.032512,-18.176713 5.501321,-2.499075 17.64141,-2.611556 285.108358,-2.641594 l 279.36236,-0.03137 7.4256,3.70033 c 13.79687,6.87527 20.27824,19.016925 20.27824,37.987528 v 9.7407129 H 305.21023 105.52615 l -8.530201,-15.7061999 -8.5302,-15.706198 -48.829957,-0.0081 -48.8299679,-0.0081 L -20.298154,-22.3874 -31.402133,-6.6731141 H -70.607516 -109.8129 Z m 535.54374,-10.668827 c 9.79537,-10.398683 -0.12914,-27.002245 -14.0516,-23.507947 -10.34994,2.597669 -14.05004,15.052743 -6.97107,23.465626 5.88984,6.999675 14.45273,7.016914 21.02267,0.04231 z m 30,0.18733 c 5.13016,-5.690754 5.24857,-12.52485 0.31853,-18.383871 -4.52754,-5.380679 -10.25956,-6.738019 -16.84127,-3.988006 -5.94833,2.485373 -8.12011,5.978118 -8.12011,13.059087 0,6.537221 1.8766,10.070486 6.82162,12.843741 5.69123,3.191737 13.08065,1.727659 17.82123,-3.530951 z m 26.81432,3.529567 c 5.26767,-2.724021 7.11425,-6.167861 7.11425,-13.267921 0,-12.828324 -15.74122,-18.442933 -24.64285,-8.789658 -11.15083,12.092402 2.81477,29.666393 17.5286,22.057579 z"
       id="path863"
       inkscape:connector-curvature="0"
       transform="matrix(0.26458333,0,0,0.26458333,50.55996,20.275934)" />
  </g>
</svg>
